Coordinates
version=1
nRows=24
nColumns=24
inDegrees=yes

Units are S.I. units (second, meters, Newtons, ...)
Angles are in degrees.

endheader
time	pelvis_tilt	pelvis_list	pelvis_rotation	pelvis_tx	pelvis_ty	pelvis_tz	hip_flexion_r	hip_adduction_r	hip_rotation_r	knee_angle_r	ankle_angle_r	subtalar_angle_r	mtp_angle_r	hip_flexion_l	hip_adduction_l	hip_rotation_l	knee_angle_l	ankle_angle_l	subtalar_angle_l	mtp_angle_l	lumbar_extension	lumbar_bending	lumbar_rotation
      0.92933333	     -5.86530880	     -9.88348443	     -3.51580809	     -0.23526995	      0.99273738	      0.30883552	     -4.18311894	     12.48812248	     -3.16897385	    -10.02316600	      5.47562867	     -7.42358600	     -5.61442531	     31.31507454	    -10.91034879	     -9.45036593	     -5.05679854	     -2.05703479	     -4.88881217	      1.51487948	     -7.13234837	     12.33114308	      8.18809837
      0.93350000	     -5.83261444	     -9.87747656	     -3.57841260	     -0.22928813	      0.99212138	      0.30867532	     -4.37417013	     12.39074941	     -3.21589067	    -10.47423003	      5.59719373	     -7.08726507	     -5.52014091	     31.14205585	    -10.86554740	     -9.29145670	     -4.86406569	     -2.02582791	     -4.86355541	      1.57062889	     -7.14624288	     12.29038336	      8.21779181
      0.93766667	     -5.77434032	     -9.85694136	     -3.65755973	     -0.22333255	      0.99160918	      0.30863694	     -4.57473664	     12.28543250	     -3.18710697	    -10.95645386	      5.71495142	     -6.82725535	     -5.39764229	     30.93865325	    -10.82777826	     -9.12668827	     -4.75870661	     -2.01825725	     -4.89118041	      1.63476221	     -7.21132824	     12.18732307	      8.25451301
      0.94183333	     -5.60860139	     -9.77702687	     -3.72592883	     -0.21730373	      0.99135226	      0.30859539	     -4.86976375	     12.10622696	     -3.19001362	    -11.46713111	      5.77025031	     -6.63720813	     -5.08161276	     30.59443338	    -10.73169629	     -9.01447370	     -4.69799114	     -2.02681215	     -4.95332509	      1.78882181	     -7.38461525	     12.01096653	      8.36747430
      0.94600000	     -5.57067157	     -9.71734660	     -3.86689631	     -0.21132633	      0.99093607	      0.30873394	     -4.98837687	     11.95810981	     -3.11295615	    -12.06757875	      5.82384526	     -6.40300043	     -4.89576867	     30.40021369	    -10.70234518	     -8.94262301	     -4.74978840	     -2.07209611	     -5.01504657	      1.87202335	     -7.42489934	     11.86608830	      8.41465067
      0.95016667	     -5.52027883	     -9.67635514	     -3.97793440	     -0.20538434	      0.99055169	      0.30885510	     -5.09572430	     11.83604748	     -3.03968902	    -12.70172881	      5.84998006	     -6.29234722	     -4.80924116	     30.22615699	    -10.68308653	     -8.83244910	     -4.92046497	     -2.05902001	     -5.12011152	      1.90848591	     -7.47870415	     11.73088405	      8.44569340
      0.95433333	     -5.19725747	     -9.51404352	     -4.14271559	     -0.19932421	      0.99080748	      0.30909165	     -5.48633817	     11.54955747	     -2.89966833	    -13.33865645	      5.80154429	     -6.06876882	     -3.96602134	     29.64397835	    -10.57503666	     -8.89632490	     -4.98003340	     -2.23342306	     -5.24706150	      2.25564265	     -7.86736535	     11.41591633	      8.65706382
      0.95850000	     -5.20734807	     -9.39373114	     -4.28550916	     -0.19326382	      0.99045939	      0.30927185	     -5.46235933	     11.33547664	     -2.84694796	    -14.09364500	      5.75976774	     -5.88345415	     -3.82848215	     29.49878691	    -10.49316039	     -8.81726732	     -5.21837370	     -2.31143171	     -5.44928361	      2.30784228	     -7.82786526	     11.17646828	      8.72092829
      0.96266667	     -5.00899337	     -9.23602319	     -4.39451755	     -0.18716784	      0.99053550	      0.30939046	     -5.64042743	     11.05685101	     -2.83378067	    -14.86068261	      5.63886164	     -5.66537016	     -3.36262715	     29.09565242	    -10.35813247	     -8.80150384	     -5.42321554	     -2.56095586	     -5.69577962	      2.48055825	     -8.02992725	     10.87601088	      8.98590821
      0.96683333	     -4.94387767	     -9.12797815	     -4.56905131	     -0.18117959	      0.99041559	      0.30967024	     -5.62539370	     10.84910365	     -2.72232960	    -15.73313235	      5.50875050	     -5.53025842	     -3.20244674	     28.86771635	    -10.31515659	     -8.80435613	     -5.74803385	     -2.68961434	     -5.95588046	      2.53481747	     -8.09535241	     10.64777843	      8.93750201
      0.97100000	     -4.83927509	     -8.95074535	     -4.72152384	     -0.17509583	      0.99044183	      0.30989321	     -5.62055912	     10.55483250	     -2.66911520	    -16.64498678	      5.30934845	     -5.33897192	     -2.97292718	     28.56479451	    -10.18717227	     -8.81286001	     -6.03488376	     -2.98168406	     -6.25783232	      2.60799333	     -8.19737681	     10.32348938	      9.05980745
      0.97516667	     -4.58063996	     -8.77175101	     -4.90578570	     -0.16902163	      0.99080403	      0.31023368	     -5.75258028	     10.24412473	     -2.57044476	    -17.58009231	      4.93614076	     -5.35200055	      4.40105863	     28.07420267	    -10.08470659	     -8.97552027	     -6.32571578	     -3.27706059	     -6.48461347	      5.03722915	     -8.48193008	      9.96758589	      9.37937073
      0.97933333	     -4.50044985	     -8.61225195	     -5.01990030	     -0.16297155	      0.99083253	      0.31036847	     -5.63397282	      9.96415564	     -2.58637431	    -18.62488337	      4.63103183	     -5.14465098	      4.43262714	     27.83237654	     -9.95957224	     -8.98548523	     -6.70039112	     -3.56917047	     -6.80607477	      5.04325626	     -8.54742659	      9.67880199	      9.33307016
      0.98350000	     -4.37002088	     -8.43322809	     -5.12844421	     -0.15693360	      0.99098610	      0.31047699	     -5.52229864	      9.65251758	     -2.62431787	    -19.73835270	      4.26819571	     -4.96515780	      4.49897575	     27.52464807	     -9.80961892	     -9.00716782	     -7.06182824	     -3.91457675	     -7.17917121	      5.05340156	     -8.66733602	      9.35295921	      9.38265609
      0.98766667	     -4.23475111	     -8.24369475	     -5.23472580	     -0.15088835	      0.99119458	      0.31058243	     -5.37109722	      9.32490022	     -2.67909069	    -20.91829590	      3.83872389	     -4.79743885	      4.59851600	     27.21016179	     -9.65090575	     -9.06014102	     -7.43213903	     -4.26452478	     -7.52983075	      5.06735651	     -8.79043336	      9.01556230	      9.43826268
      0.99183333	     -4.04343106	     -8.04580382	     -5.32473698	     -0.14491187	      0.99151863	      0.31064080	     -5.22563305	      8.97628649	     -2.76008116	    -22.17746975	      3.42905169	     -4.61103342	      4.85020142	     26.84504933	     -9.47595768	     -9.13395286	     -7.81500614	     -4.65848557	     -7.92489725	      5.10250554	     -8.99208034	      8.66002406	      9.57385836
      0.99600000	     -3.81494282	     -7.83276076	     -5.41888613	     -0.13890608	      0.99194938	      0.31065147	     -5.07668844	      8.59177675	     -2.86681231	    -23.49025627	      2.85811795	     -4.39507558	      5.40274855	     26.41977540	     -9.28158385	     -9.22586793	     -8.17651667	     -4.97582057	     -8.31435043	      5.17509194	     -9.22420460	      8.30545216	      9.69065085
      1.00016667	     -3.55356657	     -7.59869802	     -5.46975467	     -0.13285079	      0.99248005	      0.31065431	     -4.93655649	      8.18896379	     -3.00862093	    -24.81394008	      2.12133789	     -4.40463247	     10.79267374	     25.96576458	     -9.05573984	     -9.35125445	     -8.53449614	     -5.38224698	     -8.61867010	      5.82563250	     -9.48376617	      7.90370169	      9.62263949
      1.00433333	     -3.52510547	     -7.36999916	     -5.53959783	     -0.12689822	      0.99257805	      0.31063536	     -4.45639934	      7.80506921	     -3.17530629	    -26.31624859	      1.50514116	     -4.26187922	     10.85729482	     25.81039818	     -8.85416588	     -9.44529699	     -8.98531506	     -5.66575329	     -8.89325331	      5.82716168	     -9.46961534	      7.54471443	      9.58665183
      1.00850000	     -3.43864106	     -7.13811007	     -5.57152003	     -0.12096728	      0.99279341	      0.31054291	     -4.00293953	      7.40869306	     -3.37360733	    -27.85009397	      0.77616784	     -4.17272830	     10.95281772	     25.59633514	     -8.63079950	     -9.51592762	     -9.42990872	     -5.94472498	     -9.17908700	      5.82651744	     -9.52786879	      7.17092563	      9.54258712
      1.01266667	     -3.32817919	     -6.87810349	     -5.58948473	     -0.11505228	      0.99305608	      0.31036447	     -3.52490267	      6.96359004	     -3.60858554	    -29.45272736	      0.01339279	     -4.07318477	     11.09787846	     25.35390005	     -8.36783590	     -9.59622792	     -9.86453613	     -6.19149553	     -9.47266558	      5.82324418	     -9.60927943	      6.78730718	      9.48121907
      1.01683333	     -3.21094440	     -6.59527085	     -5.58605988	     -0.10914725	      0.99333774	      0.31014575	     -3.01280168	      6.48722095	     -3.86875035	    -31.10679447	     -0.79388541	     -4.00790463	     11.27425955	     25.10650892	     -8.07381363	     -9.67250941	    -10.29745693	     -6.39882047	     -9.73293098	      5.81660205	     -9.69418134	      6.37214071	      9.38695021
      1.02100000	     -3.09633655	     -6.29287413	     -5.56424129	     -0.10326633	      0.99361478	      0.30987813	     -2.45777758	      5.98352510	     -4.14242800	    -32.81037898	     -1.64174981	     -3.97995634	     11.45312313	     24.86479138	     -7.75195191	     -9.73471366	    -10.72862461	     -6.55459429	     -9.94582716	      5.80697248	     -9.77758687	      5.92729570	      9.26572412
      1.02516667	     -3.01990333	     -5.97506479	     -5.52821051	     -0.09744565	      0.99379929	      0.30948568	     -1.80973431	      5.44498868	     -4.45298946	    -34.58981940	     -2.47238543	     -3.89833321	     11.83044598	     24.67555137	     -7.40003551	     -9.76093230	    -11.17330249	     -6.63828014	    -10.26325818	      5.77703568	     -9.81871320	      5.51027667	      9.12998952
